<svg width="434" height="50" viewBox="0 0 434 100" fill="none" xmlns="http://www.w3.org/2000/svg">
<circle cx="50" cy="50" r="50" fill="#11A3FE"/>
<g filter="url(#filter0_d_1_2)">
<path d="M55.76 68V49.952H39.568V68H30.736V24.48H39.568V42.272H55.76V24.48H64.592V68H55.76Z" fill="white"/>
<path d="M55.76 68V49.952H39.568V68H30.736V24.48H39.568V42.272H55.76V24.48H64.592V68H55.76Z" fill="#F1F9FB" fill-opacity="0.2"/>
</g>
<path d="M124.589 52.24V60.56C124.642 61.2 124.749 61.6533 124.909 61.92C125.069 62.16 125.402 62.3333 125.909 62.44L125.749 66.48C124.389 66.48 123.296 66.3867 122.469 66.2C121.669 66.0133 120.856 65.64 120.029 65.08C118.109 66.0133 116.149 66.48 114.149 66.48C110.016 66.48 107.949 64.2933 107.949 59.92C107.949 57.7867 108.522 56.28 109.669 55.4C110.816 54.4933 112.576 53.96 114.949 53.8L119.229 53.48V52.24C119.229 51.4133 119.042 50.8533 118.669 50.56C118.296 50.24 117.696 50.08 116.869 50.08L109.349 50.4L109.189 46.68C112.042 45.9067 114.749 45.52 117.309 45.52C119.896 45.52 121.749 46.0533 122.869 47.12C124.016 48.1867 124.589 49.8933 124.589 52.24ZM115.589 57.52C114.096 57.6533 113.349 58.4533 113.349 59.92C113.349 61.3867 114.002 62.12 115.309 62.12C116.322 62.12 117.429 61.96 118.629 61.64L119.229 61.48V57.2L115.589 57.52ZM135.059 66H129.699V46H135.019V47.12C136.832 46.0533 138.499 45.52 140.019 45.52C142.685 45.52 144.525 46.3067 145.539 47.88C146.552 49.4533 147.059 51.88 147.059 55.16V66H141.699V55.32C141.699 53.6133 141.499 52.36 141.099 51.56C140.699 50.7333 139.899 50.32 138.699 50.32C137.605 50.32 136.552 50.5067 135.539 50.88L135.059 51.04V66ZM157.168 66H151.808V46H157.128V47.12C158.941 46.0533 160.608 45.52 162.128 45.52C164.795 45.52 166.635 46.3067 167.648 47.88C168.661 49.4533 169.168 51.88 169.168 55.16V66H163.808V55.32C163.808 53.6133 163.608 52.36 163.208 51.56C162.808 50.7333 162.008 50.32 160.808 50.32C159.715 50.32 158.661 50.5067 157.648 50.88L157.168 51.04V66ZM188.278 51C184.971 50.5733 182.651 50.36 181.318 50.36C180.011 50.36 179.158 50.48 178.758 50.72C178.384 50.96 178.198 51.3467 178.198 51.88C178.198 52.3867 178.451 52.7467 178.958 52.96C179.491 53.1467 180.824 53.44 182.958 53.84C185.118 54.2133 186.651 54.84 187.558 55.72C188.464 56.6 188.918 58.0267 188.918 60C188.918 64.32 186.238 66.48 180.878 66.48C179.118 66.48 176.984 66.24 174.478 65.76L173.198 65.52L173.358 61.04C176.664 61.4667 178.958 61.68 180.238 61.68C181.544 61.68 182.424 61.56 182.878 61.32C183.358 61.0533 183.598 60.6667 183.598 60.16C183.598 59.6533 183.344 59.28 182.838 59.04C182.358 58.8 181.078 58.5067 178.998 58.16C176.944 57.8133 175.411 57.2267 174.398 56.4C173.384 55.5733 172.878 54.1067 172.878 52C172.878 49.8667 173.598 48.2667 175.038 47.2C176.478 46.1067 178.331 45.56 180.598 45.56C182.171 45.56 184.318 45.8133 187.038 46.32L188.358 46.56L188.278 51ZM202.425 66H193.265V38.8H202.425C204.771 38.8 206.705 39.0533 208.225 39.56C209.745 40.04 210.918 40.8533 211.745 42C212.598 43.12 213.185 44.4533 213.505 46C213.825 47.52 213.985 49.5067 213.985 51.96C213.985 54.4133 213.838 56.4533 213.545 58.08C213.251 59.68 212.691 61.12 211.865 62.4C211.065 63.6533 209.891 64.5733 208.345 65.16C206.798 65.72 204.825 66 202.425 66ZM208.225 55.2C208.278 54.3467 208.305 53.1733 208.305 51.68C208.305 50.16 208.251 48.9467 208.145 48.04C208.038 47.1333 207.785 46.3067 207.385 45.56C206.985 44.8133 206.385 44.3067 205.585 44.04C204.811 43.7467 203.758 43.6 202.425 43.6H198.785V61.2H202.425C204.425 61.2 205.878 60.6933 206.785 59.68C207.558 58.8533 208.038 57.36 208.225 55.2ZM222.693 58.28C222.719 59.5067 223.039 60.4 223.653 60.96C224.293 61.4933 225.199 61.76 226.372 61.76C228.853 61.76 231.066 61.68 233.013 61.52L234.133 61.4L234.213 65.36C231.146 66.1067 228.373 66.48 225.893 66.48C222.879 66.48 220.693 65.68 219.333 64.08C217.973 62.48 217.293 59.88 217.293 56.28C217.293 49.1067 220.239 45.52 226.133 45.52C231.946 45.52 234.853 48.5333 234.853 54.56L234.453 58.28H222.693ZM229.573 54.2C229.573 52.6 229.319 51.4933 228.813 50.88C228.306 50.24 227.413 49.92 226.133 49.92C224.879 49.92 223.986 50.2533 223.453 50.92C222.946 51.56 222.679 52.6533 222.653 54.2H229.573ZM236.569 46H242.169L245.369 61.44H246.489L249.849 46H255.289L250.489 66H241.369L236.569 46Z" fill="#11A3FE"/>
<defs>
<filter id="filter0_d_1_2" x="26.736" y="24.48" width="41.856" height="51.52" filterUnits="userSpaceOnUse" color-interpolation-filters="sRGB">
<feFlood flood-opacity="0" result="BackgroundImageFix"/>
<feColorMatrix in="SourceAlpha" type="matrix" values="0 0 0 0 0 0 0 0 0 0 0 0 0 0 0 0 0 0 127 0" result="hardAlpha"/>
<feOffset dy="4"/>
<feGaussianBlur stdDeviation="2"/>
<feComposite in2="hardAlpha" operator="out"/>
<feColorMatrix type="matrix" values="0 0 0 0 0 0 0 0 0 0 0 0 0 0 0 0 0 0 0.25 0"/>
<feBlend mode="normal" in2="BackgroundImageFix" result="effect1_dropShadow_1_2"/>
<feBlend mode="normal" in="SourceGraphic" in2="effect1_dropShadow_1_2" result="shape"/>
</filter>
</defs>
</svg>
