<svg width="48" height="48" viewBox="0 0 48 48" fill="none" xmlns="http://www.w3.org/2000/svg">
<g clip-path="url(#clip0_15_148)">
<path fill-rule="evenodd" clip-rule="evenodd" d="M5.19626 21.8034C5.19626 12.6316 12.6315 5.19631 21.8033 5.19631C30.9752 5.19631 38.4103 12.6316 38.4103 21.8034C38.4103 30.9753 30.9752 38.4105 21.8033 38.4105C12.6315 38.4105 5.19626 30.9753 5.19626 21.8034ZM21.8033 0.0534668C9.7912 0.0534668 0.0534058 9.79125 0.0534058 21.8034C0.0534058 33.8156 9.7912 43.5534 21.8033 43.5534C26.5722 43.5534 30.9826 42.0184 34.5676 39.4158L42.0936 46.9422C43.4325 48.281 45.6034 48.281 46.9423 46.9422C48.2815 45.603 48.2815 43.4324 46.9423 42.0935L39.4162 34.5671C42.0185 30.9823 43.5532 26.5721 43.5532 21.8034C43.5532 9.79125 33.8155 0.0534668 21.8033 0.0534668ZM19.2473 13.8597C20.0841 14.6965 20.0841 16.0533 19.2473 16.8901L13.9053 22.2321L19.2473 27.5739C20.0841 28.4108 20.0841 29.7676 19.2473 30.6044C18.4104 31.4412 17.0536 31.4412 16.2168 30.6044L9.35967 23.7473C8.52283 22.9104 8.52283 21.5536 9.35967 20.7168L16.2168 13.8597C17.0536 13.0228 18.4104 13.0228 19.2473 13.8597ZM27.8187 13.8597C26.9818 13.0228 25.6251 13.0228 24.7882 13.8597C23.9514 14.6965 23.9514 16.0533 24.7882 16.8901L30.1301 22.2321L24.7882 27.5739C23.9514 28.4108 23.9514 29.7676 24.7882 30.6044C25.6251 31.4412 26.9818 31.4412 27.8187 30.6044L34.6759 23.7473C35.5128 22.9104 35.5128 21.5536 34.6759 20.7168L27.8187 13.8597Z" fill="#11A3FE"/>
</g>
<defs>
<clipPath id="clip0_15_148">
<rect width="48" height="48" fill="white"/>
</clipPath>
</defs>
</svg>
