<svg width="49" height="49" viewBox="0 0 49 49" fill="none" xmlns="http://www.w3.org/2000/svg">
<path d="M39.5438 10.2083H9.45613C8.2692 10.2083 7.30701 11.2239 7.30701 12.4768V32.8934C7.30701 34.1463 8.2692 35.162 9.45613 35.162H39.5438C40.7308 35.162 41.693 34.1463 41.693 32.8934V12.4768C41.693 11.2239 40.7308 10.2083 39.5438 10.2083Z" fill="black" fill-opacity="0.15"/>
<path d="M39.5438 35.162H9.45612M39.5438 35.162C40.7308 35.162 41.693 34.1463 41.693 32.8934V12.4768C41.693 11.2239 40.7308 10.2083 39.5438 10.2083H9.45612C8.26919 10.2083 7.307 11.2239 7.307 12.4768V32.8934C7.307 34.1463 8.26919 35.162 9.45612 35.162M39.5438 35.162H42.2302C43.7139 35.162 44.9166 36.4315 44.9166 37.9976C44.9166 39.5637 43.7139 40.8333 42.2302 40.8333H6.76972C5.28606 40.8333 4.08331 39.5637 4.08331 37.9976C4.08331 36.4315 5.28606 35.162 6.76972 35.162H9.45612" stroke="#11A3FE" stroke-width="2" stroke-linecap="round" stroke-linejoin="round"/>
</svg>
