<svg width="59" height="59" viewBox="0 0 59 59" fill="none" xmlns="http://www.w3.org/2000/svg">
<rect width="59" height="59" fill="white"/>
<path d="M40.4086 27.5012C40.8329 27.1477 40.8902 26.5171 40.5367 26.0928C40.1831 25.6685 39.5526 25.6112 39.1283 25.9648L40.4086 27.5012ZM29.9904 34.8814L29.3502 35.6496C29.7211 35.9586 30.2598 35.9586 30.6306 35.6496L29.9904 34.8814ZM20.8526 25.9648C20.4283 25.6112 19.7977 25.6685 19.4442 26.0928C19.0906 26.5171 19.1479 27.1477 19.5722 27.5012L20.8526 25.9648ZM39.1283 25.9648L29.3502 34.1131L30.6306 35.6496L40.4086 27.5012L39.1283 25.9648ZM30.6306 34.1131L20.8526 25.9648L19.5722 27.5012L29.3502 35.6496L30.6306 34.1131ZM50.625 29.5C50.625 41.167 41.167 50.625 29.5 50.625V52.625C42.2716 52.625 52.625 42.2716 52.625 29.5H50.625ZM29.5 50.625C17.833 50.625 8.375 41.167 8.375 29.5H6.375C6.375 42.2716 16.7284 52.625 29.5 52.625V50.625ZM8.375 29.5C8.375 17.833 17.833 8.375 29.5 8.375V6.375C16.7284 6.375 6.375 16.7284 6.375 29.5H8.375ZM29.5 8.375C41.167 8.375 50.625 17.833 50.625 29.5H52.625C52.625 16.7284 42.2716 6.375 29.5 6.375V8.375Z" fill="#11A3FE"/>
</svg>
