<svg width="48" height="48" viewBox="0 0 48 48" fill="none" xmlns="http://www.w3.org/2000/svg">
<g clip-path="url(#clip0_15_267)">
<path d="M45.3 28.7799L24 44.2599L2.70001 28.7799C2.41446 28.5699 2.20265 28.275 2.09488 27.9373C1.98711 27.5996 1.98891 27.2365 2.10001 26.8999L4.54001 19.3399L9.42001 4.31992C9.46735 4.19754 9.54269 4.08794 9.64001 3.99992C9.79849 3.85517 10.0054 3.7749 10.22 3.7749C10.4347 3.7749 10.6415 3.85517 10.8 3.99992C10.9028 4.09925 10.9785 4.22316 11.02 4.35992L15.9 19.3399H32.1L36.98 4.31992C37.0273 4.19754 37.1027 4.08794 37.2 3.99992C37.3585 3.85517 37.5654 3.7749 37.78 3.7749C37.9947 3.7749 38.2015 3.85517 38.36 3.99992C38.4628 4.09925 38.5385 4.22316 38.58 4.35992L43.46 19.3799L46 26.8999C46.1011 27.2469 46.0875 27.6172 45.9614 27.9559C45.8353 28.2945 45.6034 28.5835 45.3 28.7799Z" stroke="#1E1E1E" stroke-width="4" stroke-linecap="round" stroke-linejoin="round"/>
</g>
<defs>
<clipPath id="clip0_15_267">
<rect width="48" height="48" fill="white"/>
</clipPath>
</defs>
</svg>
